<svg width="24" height="24" viewBox="0 0 24 24" fill="none" xmlns="http://www.w3.org/2000/svg">
<path fill-rule="evenodd" clip-rule="evenodd" d="M12.5961 0.0145487C12.3986 0.00488724 12.1999 0 12 0C5.37258 0 0 5.37258 0 12C0 14.5348 0.785925 16.886 2.12739 18.8233L4.56767 14.9023L17.2486 22.7943C19.9376 21.4844 22.0641 19.1993 23.168 16.3992L9.74036 13.5704L12.5961 0.0145487ZM14.583 0.278677C19.9689 1.46015 24 6.25932 24 12C24 12.8498 23.9117 13.6789 23.7437 14.4787L12.1079 12.0275L14.583 0.278677ZM16.1243 23.2725L4.88829 16.2797L2.77508 19.6752C4.97628 22.3179 8.29171 24 12 24C13.4491 24 14.8382 23.7431 16.1243 23.2725Z" fill="#90D5FE"/>
</svg>
