<svg width="14" height="16" viewBox="0 0 14 16" fill="none" xmlns="http://www.w3.org/2000/svg">
<path d="M10.4014 0.75C10.6314 0.808326 10.8689 0.840614 11.0859 0.943987C11.9857 1.37258 12.4545 2.07796 12.4646 3.05545C12.4766 4.18317 12.4686 5.31142 12.467 6.44045C12.467 6.76411 12.3123 6.97216 12.0309 7.04506C11.9111 7.07538 11.7846 7.06702 11.6701 7.02123C11.5556 6.97543 11.4593 6.89466 11.3955 6.79093C11.3197 6.66855 11.3104 6.53315 11.3104 6.3954C11.3104 5.3004 11.3104 4.20548 11.3104 3.11065C11.3104 2.82995 11.2551 2.56827 11.0769 2.34095C10.8226 2.01703 10.4806 1.88241 10.0703 1.88267C8.00254 1.88424 5.2058 1.88424 3.13774 1.88267H2.34306C1.67073 1.88267 1.17951 2.39042 1.16409 2.96483C1.16276 3.01691 1.1585 3.06899 1.1585 3.12106C1.1585 6.37275 1.15788 9.62435 1.15664 12.8759C1.15664 13.2823 1.28031 13.625 1.61461 13.8799C1.83642 14.0492 2.09333 14.1158 2.36966 14.1161C2.99146 14.1161 4.34212 14.1143 4.96392 14.1161C5.21977 14.1161 5.40541 14.2369 5.5094 14.4655C5.60168 14.6678 5.54716 14.922 5.38519 15.0803C5.33101 15.1343 5.26617 15.1769 5.19461 15.2056C5.12306 15.2343 5.04629 15.2485 4.96897 15.2472C4.3134 15.2472 2.92896 15.2547 2.27338 15.2451C1.02473 15.2274 -0.00159387 14.2249 1.85828e-06 12.9522C0.00425714 9.64865 -0.00425344 6.34515 0.00452307 3.04139C0.00771452 1.86028 0.807441 0.967421 1.99041 0.776038C2.00724 0.769844 2.02295 0.761054 2.03695 0.75H10.4014Z" fill="#002C51"/>
<path d="M6.58359 4.14801C7.57188 4.14801 8.5599 4.14541 9.54819 4.14801C10.0229 4.14983 10.3054 4.61358 10.0713 4.99999C9.96494 5.17497 9.8035 5.26688 9.59632 5.27756C9.49553 5.28277 9.39393 5.27938 9.29287 5.27938C7.4225 5.27938 4.8231 5.27938 2.95237 5.27938C2.53615 5.27938 2.27206 5.00598 2.32099 4.63128C2.35823 4.34642 2.59785 4.14853 2.91833 4.14775C3.7138 4.14541 5.23786 4.14775 6.03333 4.14775L6.58359 4.14801Z" fill="#002C51"/>
<path d="M6.58759 7.54599C5.60887 7.54599 3.90157 7.54781 2.92312 7.54599C2.51728 7.54599 2.24866 7.22936 2.32685 6.85518C2.37473 6.62552 2.58563 6.443 2.83376 6.418C2.87206 6.41435 2.91089 6.41435 2.94919 6.41435C4.89686 6.41435 7.57313 6.41435 9.52027 6.41435C9.89048 6.41435 10.1461 6.64245 10.1511 6.97184C10.1562 7.2968 9.90245 7.54468 9.55192 7.54468C8.94448 7.54781 8.33731 7.54468 7.72986 7.54468L6.58759 7.54599Z" fill="#002C51"/>
<path d="M5.41738 9.81137C4.82031 9.81137 3.49412 9.81632 2.89679 9.81007C2.47126 9.80564 2.19919 9.40517 2.3561 9.02891C2.44945 8.80498 2.65849 8.67922 2.94519 8.67896C4.01929 8.67896 5.82225 8.67896 6.89635 8.67896C7.01204 8.67896 7.12773 8.67583 7.24209 8.67896C7.5647 8.69067 7.80858 8.93205 7.81204 9.23957C7.81313 9.31406 7.79905 9.38802 7.77062 9.45713C7.74218 9.52623 7.69996 9.58909 7.64643 9.64204C7.59289 9.69499 7.52912 9.73696 7.45883 9.76549C7.38853 9.79403 7.31314 9.80857 7.23704 9.80825C6.6312 9.81476 6.02429 9.81137 5.41738 9.81137Z" fill="#002C51"/>
<path d="M13.9707 9.85381C13.8306 9.18801 13.4348 8.73129 12.7705 8.53236C12.1061 8.33342 11.512 8.49356 11.0197 8.97084C9.9785 9.9801 8.94526 10.9964 7.90804 12.009C7.81704 12.0936 7.74927 12.1993 7.71097 12.3163C7.48668 13.0408 7.2623 13.7654 7.03783 14.49C6.99663 14.6115 6.99738 14.7428 7.03996 14.8639C7.15459 15.1763 7.44474 15.3065 7.81575 15.2058C8.52904 15.0128 9.24127 14.8152 9.95509 14.6267C10.1277 14.5823 10.2848 14.493 10.4096 14.3681C11.0757 13.7125 11.744 13.0588 12.4144 12.4071C12.7658 12.0636 13.117 11.7202 13.4681 11.3771C13.8138 11.0386 13.9968 10.6303 14 10.1027C13.9954 10.0193 13.9856 9.93613 13.9707 9.85381ZM11.667 11.5395C11.0025 12.1832 10.3405 12.8294 9.68116 13.4781C9.64213 13.5193 9.59239 13.5492 9.53728 13.5648C9.18037 13.6596 8.82425 13.7567 8.43915 13.8609C8.55484 13.4903 8.66441 13.1412 8.77239 12.7915C8.78797 12.752 8.81372 12.7171 8.84712 12.6902C9.51219 12.0404 10.1771 11.3903 10.8418 10.7399C10.904 10.6784 10.9389 10.6646 11.008 10.736C11.2208 10.9545 11.4404 11.1664 11.662 11.3765C11.7245 11.4362 11.7394 11.4698 11.667 11.5395ZM12.6032 10.6225C12.562 10.661 12.5428 10.6415 12.513 10.612C12.2758 10.3782 12.0379 10.1451 11.7992 9.91266C11.7726 9.88662 11.746 9.86917 11.7822 9.82126C11.9232 9.63378 12.2045 9.54135 12.4404 9.61295C12.6811 9.68638 12.8426 9.90667 12.8394 10.1983C12.8431 10.353 12.7396 10.4946 12.6032 10.6225Z" fill="#002C51"/>
</svg>
