<svg width="36" height="36" viewBox="0 0 36 36" fill="none" xmlns="http://www.w3.org/2000/svg">
<rect x="0.5" y="0.5" width="35" height="35" rx="11.5" stroke="#95B0CD"/>
<path d="M12.5286 26C12.3949 25.9289 12.2417 25.9262 12.1012 25.8765C11.1322 25.5329 10.5063 24.6509 10.5018 23.6048C10.4977 22.5854 10.5018 21.5663 10.5018 20.5472C10.5018 18.4101 10.5018 15.4728 10.5018 13.3354C10.5018 12.2762 11.1204 11.3925 12.0977 11.047C12.376 10.9503 13.4594 10.9077 13.7534 10.9215C13.8303 10.9244 13.8733 10.9009 13.9169 10.8322C14.6261 9.72802 16.1716 9.72148 16.8803 10.8194C16.8979 10.8533 16.9249 10.8812 16.9581 10.8996C16.9912 10.9181 17.029 10.9263 17.0667 10.9233C18.3254 10.9201 21.8647 10.9201 23.1232 10.9233C24.2875 10.9271 25.2366 11.7201 25.4569 12.865C25.4857 13.0194 25.4998 13.1762 25.499 13.3334C25.499 15.4856 25.499 18.4378 25.499 20.5901C25.499 20.8409 25.4165 21.0453 25.1918 21.1718C25.103 21.2257 25.0009 21.2533 24.8973 21.2512C24.7937 21.2491 24.6928 21.2174 24.6062 21.1599C24.4104 21.0393 24.3226 20.8558 24.3229 20.6243C24.3229 19.8673 24.3229 19.1104 24.3229 18.3534V13.3697C24.3229 12.9555 24.1821 12.6074 23.8516 12.3503C23.6438 12.1897 23.3886 12.1046 23.127 12.1087C21.9368 12.1063 18.4661 12.1087 17.2762 12.1045C17.1639 12.1045 17.1657 12.153 17.1657 12.2351C17.1675 13.6007 17.1675 15.7661 17.1657 17.1314C17.1636 17.9901 16.6202 18.6825 15.799 18.8869C14.7498 19.1476 13.6733 18.3365 13.6471 17.2421C13.6259 16.362 13.6379 14.6809 13.6421 13.8005C13.6407 13.7217 13.6549 13.6433 13.6839 13.5701C13.7129 13.4969 13.756 13.4303 13.8109 13.3741C13.8657 13.318 13.9311 13.2735 14.0031 13.2432C14.0752 13.213 14.1526 13.1976 14.2306 13.1979C14.3087 13.1982 14.3859 13.2143 14.4577 13.2452C14.5295 13.2761 14.5945 13.3212 14.6489 13.3778C14.7032 13.4344 14.7458 13.5014 14.7742 13.5748C14.8026 13.6483 14.8161 13.7267 14.8141 13.8056C14.8185 14.6467 14.8141 16.2879 14.8158 17.1287C14.8158 17.3718 14.918 17.5596 15.1304 17.6753C15.3272 17.7824 15.5277 17.7726 15.716 17.6524C15.801 17.6017 15.8711 17.5291 15.9193 17.442C15.9674 17.3549 15.9918 17.2564 15.9899 17.1567C15.9918 15.6327 15.9918 13.3089 15.9899 11.7852C15.9915 11.6402 15.9401 11.4996 15.8457 11.3903C15.7512 11.281 15.6202 11.2107 15.4777 11.1928C15.2011 11.1547 14.9398 11.3261 14.8438 11.6094C14.7154 11.9876 14.5493 12.1045 14.1481 12.109C13.883 12.1122 12.8284 12.0792 12.5684 12.1471C12.0285 12.2884 11.6847 12.7469 11.6762 13.3235C11.6729 13.5809 11.6762 13.8383 11.6762 14.0954C11.6774 16.9794 11.6779 20.6634 11.6779 23.5473C11.6779 24.1603 11.9955 24.6033 12.5516 24.7673C12.6844 24.8018 12.8215 24.817 12.9586 24.8125C15.2897 24.8125 20.6909 24.8039 23.0216 24.8173C23.7323 24.8214 24.3023 24.362 24.3291 23.5994C24.3388 23.3284 24.5058 23.1284 24.7529 23.0573C24.8686 23.0225 24.9922 23.0254 25.1062 23.0654C25.2202 23.1055 25.3189 23.1807 25.3882 23.2804C25.4766 23.4066 25.5061 23.5482 25.499 23.7015C25.4527 24.8675 24.6124 25.8063 23.4628 25.9732C23.4434 25.9762 23.4245 25.9774 23.4169 25.9997L12.5286 26Z" fill="#95B0CD"/>
<path d="M16.4534 21.2798C15.4649 21.2798 15.2658 21.2798 14.2771 21.2798C13.9864 21.2798 13.7643 21.1337 13.6774 20.8915C13.6468 20.8064 13.6358 20.7154 13.6452 20.6254C13.6547 20.5354 13.6843 20.4487 13.7319 20.372C13.7796 20.2953 13.8438 20.2306 13.9199 20.1828C13.996 20.135 14.0819 20.1054 14.1711 20.0961C14.2052 20.0931 14.2396 20.0918 14.2739 20.0923C16.2508 20.0923 19.3443 20.0923 21.3217 20.0923C21.6189 20.0923 21.8427 20.244 21.9249 20.4948C22.0554 20.8936 21.7723 21.2768 21.3397 21.2786C20.5665 21.2816 17.8875 21.2786 17.1141 21.2786L16.4534 21.2798Z" fill="#95B0CD"/>
<path d="M15.5804 22.4375C16.2849 22.4375 17.7351 22.4351 18.4396 22.4375C18.5759 22.4348 18.7088 22.4805 18.8152 22.5667C18.9215 22.6529 18.9945 22.7741 19.0214 22.9091C19.0473 23.0358 19.0316 23.1675 18.9768 23.2844C18.9219 23.4013 18.8309 23.4969 18.7174 23.5569C18.6255 23.6039 18.5235 23.6274 18.4205 23.6253C17.0163 23.6253 15.6562 23.6253 14.2524 23.6253C13.9048 23.6253 13.6465 23.3691 13.6438 23.0371C13.6412 22.699 13.9021 22.442 14.2577 22.4396C14.9604 22.4348 14.8758 22.4375 15.5804 22.4375Z" fill="#95B0CD"/>
<path d="M19.1678 15.4312C19.3828 15.4312 21.1332 15.4286 21.3482 15.4312C21.6955 15.4363 21.9538 15.6871 21.9567 16.0189C21.96 16.3566 21.6993 16.614 21.3447 16.6176C20.9097 16.6209 18.9396 16.6209 18.5044 16.6176C18.1569 16.6146 17.8989 16.362 17.8956 16.0302C17.8924 15.6925 18.1533 15.4351 18.508 15.4312C18.7277 15.4289 18.9477 15.4312 19.1678 15.4312Z" fill="#95B0CD"/>
<path d="M19.1572 18.964C18.9371 18.964 18.7171 18.967 18.4971 18.964C18.1522 18.9583 17.8947 18.7013 17.8956 18.3689C17.8965 18.0365 18.1545 17.7807 18.5003 17.7777C18.9404 17.7739 20.9154 17.7739 21.3553 17.7777C21.7002 17.7809 21.9579 18.0401 21.9567 18.3728C21.9555 18.7054 21.6978 18.9589 21.352 18.9643C21.132 18.9667 19.3769 18.964 19.1572 18.964Z" fill="#95B0CD"/>
</svg>
