<svg width="11" height="10" viewBox="0 0 11 10" fill="none" xmlns="http://www.w3.org/2000/svg">
<path fill-rule="evenodd" clip-rule="evenodd" d="M4.75264 5.74729H1.25464C0.729129 5.74729 0.388757 5.2843 0.533437 4.77721C0.574113 4.6365 0.652968 4.51181 0.760041 4.41889C0.867114 4.32596 0.997603 4.26897 1.13503 4.25511C1.18754 4.25073 1.24023 4.24916 1.2929 4.25042H4.75271V0.754639C4.75271 0.229129 5.2157 -0.111243 5.72279 0.0334369C5.8635 0.0741128 5.98819 0.152968 6.08111 0.260041C6.17404 0.367114 6.23103 0.497603 6.24489 0.635025C6.24927 0.687543 6.25084 0.740234 6.24958 0.792898V4.25042H9.71074C10.0872 4.25042 10.3541 4.42774 10.4583 4.74437C10.4962 4.8562 10.5085 4.97605 10.4942 5.09397C10.48 5.21189 10.4395 5.32447 10.3762 5.42236C10.313 5.52026 10.2287 5.60064 10.1305 5.65682C10.0323 5.71301 9.92289 5.74338 9.81144 5.74541C9.60915 5.75229 9.40648 5.75 9.2038 5.74771C9.10246 5.74656 9.00112 5.74541 8.89983 5.74541C8.01667 5.74663 7.13326 5.74727 6.24958 5.74736V9.21074C6.24958 9.58717 6.07226 9.8541 5.75563 9.95833C5.6438 9.9962 5.52395 10.0085 5.40603 9.99423C5.28811 9.97995 5.17553 9.93951 5.07764 9.87625C4.97974 9.81299 4.89936 9.72874 4.84318 9.63051C4.78699 9.53227 4.75662 9.42289 4.75459 9.31144C4.74771 9.10915 4.75 8.90648 4.75229 8.7038C4.75344 8.60246 4.75459 8.50112 4.75459 8.39983C4.75337 7.51591 4.75273 6.63173 4.75264 5.74729Z" fill="#002C51"/>
</svg>
