<svg width="14" height="14" viewBox="0 0 14 14" fill="none" xmlns="http://www.w3.org/2000/svg">
<path d="M0.447422 14.0002C0.424699 13.9575 0.378118 13.9634 0.342898 13.9477C0.00205851 13.796 -0.109282 13.3634 0.146574 13.0936C0.66056 12.5515 1.18636 12.0208 1.71625 11.4941C1.92076 11.2908 2.25182 11.3106 2.45746 11.5118C2.55869 11.6094 2.61773 11.7426 2.62198 11.883C2.62622 12.0235 2.57533 12.1601 2.48019 12.2635C2.29341 12.4679 2.0939 12.6625 1.89872 12.8608C1.63082 13.1333 1.35973 13.404 1.09524 13.6806C0.962998 13.8189 0.826662 13.9457 0.637837 14.0002H0.447422Z" fill="#002C51"/>
<path d="M3.23753 14.0002C3.20095 13.9547 3.14232 13.9547 3.09574 13.9309C3.02065 13.8921 2.9556 13.8364 2.90574 13.7682C2.85589 13.6999 2.82258 13.6211 2.80845 13.5378C2.79433 13.4545 2.79977 13.369 2.82435 13.2882C2.84893 13.2074 2.89198 13.1334 2.95009 13.072C3.11551 12.8962 3.28707 12.7257 3.46249 12.5599C3.56496 12.4603 3.7027 12.4053 3.84562 12.4069C3.98854 12.4084 4.12503 12.4665 4.22528 12.5683C4.43683 12.7799 4.44342 13.107 4.23256 13.3304C4.07009 13.5026 3.89717 13.665 3.73152 13.8342C3.64063 13.9279 3.5202 13.9622 3.40182 14.0002H3.23753Z" fill="#002C51"/>
<path d="M8.13448 14.0002C8.24378 13.9493 8.3533 13.9636 8.46282 14.0002H8.13448Z" fill="#002C51"/>
<path d="M1.05298 9.62211C1.27157 9.62779 1.4379 9.7259 1.53674 9.91984C1.63559 10.1138 1.62763 10.3148 1.48971 10.484C1.30601 10.7099 1.09942 10.9162 0.873244 11.0996C0.656015 11.274 0.346761 11.2323 0.157481 11.0279C-0.0317982 10.8235 -0.045659 10.5148 0.142939 10.308C0.320175 10.1131 0.510591 9.92961 0.701915 9.74838C0.748945 9.70485 0.80427 9.67123 0.864587 9.64953C0.924905 9.62784 0.988977 9.61851 1.05298 9.62211Z" fill="#002C51"/>
<path d="M13.9878 0.997663C13.9628 0.510759 13.6829 0.153757 13.2427 0.0572388C13.0774 0.0241127 12.9094 0.00632323 12.7408 0.00409718C11.1095 -0.0474547 9.6021 0.390169 8.18216 1.16458C7.42126 1.58053 6.73104 2.11423 6.13713 2.74589C6.09032 2.79539 6.04464 2.83922 5.96648 2.84445C5.79401 2.85603 5.62223 2.87874 5.44999 2.89668C4.13208 3.03476 2.81417 3.17299 1.49626 3.31137C0.814579 3.38404 0.220156 3.90932 0.0647331 4.57655C-0.0363826 5.00804 0.00724486 5.44748 0.0226962 5.88192C0.0311036 6.12265 0.233562 6.30115 0.477149 6.34203C0.687953 6.3775 0.896637 6.42459 1.10225 6.48306C1.76802 6.67178 2.39357 6.94294 2.94278 7.3742C3.04617 7.4555 3.06548 7.51955 3.01095 7.64105C2.79031 8.13908 2.5824 8.64256 2.36744 9.14286C2.25769 9.39813 2.30064 9.61977 2.49537 9.8169C3.04321 10.3713 3.58833 10.9279 4.1364 11.4818C4.33727 11.6848 4.54541 11.7209 4.80876 11.603C5.21913 11.4195 5.62678 11.2304 6.03919 11.0512C6.16894 10.9946 6.30868 10.8541 6.42934 10.9099C6.54431 10.9631 6.61226 11.128 6.68974 11.2506C7.1401 11.9639 7.43231 12.7449 7.66522 13.5504C7.70726 13.6956 7.77883 13.8148 7.90517 13.9024C7.96039 13.9406 8.03424 13.9426 8.07764 13.9994H8.13467C8.24289 13.9763 8.35479 13.9763 8.46301 13.9994H9.17423C9.17968 13.9767 9.19695 13.9767 9.21513 13.9738C9.55435 13.9369 9.87414 13.7971 10.1315 13.5732C10.3889 13.3493 10.5715 13.052 10.6548 12.7213C10.7273 12.4329 10.7357 12.1358 10.7669 11.842C10.8943 10.6333 11.0241 9.42492 11.1431 8.21538C11.1636 8.00622 11.2168 7.83749 11.3865 7.69941C11.5228 7.58836 11.641 7.45119 11.7557 7.31606C13.3011 5.49358 14.1107 3.41038 13.9878 0.997663ZM2.92619 5.97117C2.88075 6.01659 2.84962 6.01659 2.79826 5.98843C2.28857 5.71795 1.74696 5.51241 1.18609 5.37662C1.12111 5.3605 1.0977 5.33347 1.10316 5.26739C1.11452 5.12749 1.08566 4.98533 1.12406 4.84634C1.19427 4.59403 1.35311 4.43188 1.61623 4.401C2.19452 4.33287 2.77509 4.27496 3.35315 4.21318C3.7561 4.17019 4.15882 4.12772 4.56131 4.08578C4.63675 4.07783 4.71219 4.07306 4.78854 4.0667L4.81126 4.10917C4.182 4.72916 3.55364 5.35028 2.92619 5.97117ZM5.54202 10.0751C5.2823 10.1934 5.02076 10.3081 4.76173 10.4283C4.70151 10.456 4.6622 10.4614 4.61017 10.4076C4.26175 10.0483 3.91122 9.69139 3.55856 9.33681C3.51857 9.29661 3.50471 9.26641 3.53016 9.20827C3.65877 8.91485 3.78147 8.61781 3.90122 8.33552L5.60951 9.99722C5.60746 10.064 5.56701 10.0635 5.54202 10.0751ZM9.85295 10.106C9.77464 10.8479 9.69549 11.5902 9.6155 12.333C9.57915 12.6693 9.3626 12.8759 9.02472 12.9007C8.62934 12.9309 8.62957 12.9309 8.50073 12.5601C8.34665 12.1087 8.16053 11.6689 7.9438 11.244C7.91631 11.1906 7.89199 11.1491 7.95244 11.0898C8.60382 10.4523 9.25315 9.81274 9.90044 9.17125C9.91543 9.1609 9.93151 9.15222 9.94839 9.14536C9.91635 9.47511 9.88613 9.79078 9.85295 10.106ZM12.913 1.24271C12.9089 1.36102 12.913 1.47957 12.913 1.59789C12.9032 2.84309 12.5472 3.99676 11.9741 5.0907C11.6009 5.80083 11.1178 6.44756 10.5426 7.00698C9.49462 8.03348 8.45051 9.06391 7.41027 10.0983C7.33211 10.1759 7.29462 10.1678 7.22236 10.0946C6.11122 8.96928 4.99827 7.84619 3.8835 6.72538C3.81896 6.66065 3.80919 6.62818 3.87963 6.55777C4.97532 5.46292 6.061 4.35898 7.1626 3.26913C8.06355 2.37753 9.15333 1.80137 10.3558 1.42598C11.134 1.17941 11.9485 1.06729 12.7644 1.09441C12.8805 1.0985 12.9169 1.13551 12.913 1.24271Z" fill="#002C51"/>
<path d="M9.45967 2.93081C8.57167 2.94058 7.855 3.66503 7.85931 4.54868C7.86202 4.97523 8.03417 5.38324 8.33787 5.68295C8.48825 5.83134 8.6664 5.94869 8.86215 6.02827C9.05791 6.10786 9.26743 6.14813 9.47875 6.14679C9.69008 6.14545 9.89907 6.10252 10.0938 6.02045C10.2885 5.93838 10.4652 5.81879 10.6136 5.66849C10.7621 5.5182 10.8795 5.34014 10.9592 5.1445C11.0388 4.94885 11.0791 4.73945 11.0777 4.52824C11.0714 3.64232 10.3406 2.92105 9.45967 2.93081ZM9.46807 5.0751C9.32624 5.07462 9.19035 5.0181 9.09006 4.91786C8.98976 4.81762 8.93321 4.68181 8.93273 4.54005C8.93386 4.24981 9.18268 4.00296 9.47216 4.00523C9.61398 4.00696 9.7494 4.06452 9.84903 4.16541C9.94865 4.2663 10.0045 4.40238 10.0043 4.54414C10.0043 4.61429 9.99043 4.68374 9.96342 4.74849C9.9364 4.81323 9.89682 4.87199 9.84696 4.92136C9.7971 4.97073 9.73794 5.00974 9.67291 5.03612C9.60788 5.06251 9.53826 5.07576 9.46807 5.0751Z" fill="#002C51"/>
<path d="M7.33919 6.25171C7.44487 6.25499 7.54719 6.28951 7.63324 6.35091C7.71929 6.4123 7.78519 6.49781 7.82262 6.59664C7.86005 6.69546 7.86733 6.80316 7.84353 6.90611C7.81973 7.00907 7.76592 7.10266 7.68891 7.17505C7.6119 7.24745 7.51515 7.29541 7.41087 7.31285C7.3066 7.3303 7.19949 7.31646 7.10308 7.27308C7.00668 7.2297 6.92531 7.15872 6.86926 7.06913C6.8132 6.97954 6.78498 6.87534 6.78817 6.76973C6.79256 6.62802 6.85307 6.49386 6.95639 6.39672C7.05972 6.29959 7.19741 6.24743 7.33919 6.25171Z" fill="#002C51"/>
</svg>
