<svg width="14" height="10" viewBox="0 0 14 10" fill="none" xmlns="http://www.w3.org/2000/svg">
<path fill-rule="evenodd" clip-rule="evenodd" d="M4.57562 0C4.56184 0.00315784 4.54505 0.00407801 4.52494 0.00273378C4.50411 0.00146469 4.48317 0.00188421 4.46206 0.00230723C4.45144 0.00252006 4.44077 0.00273378 4.43005 0.00273378H1.95448C1.75398 0.00363547 1.55452 0.0316258 1.36144 0.0859527C0.658336 0.275758 -0.00752659 1.02425 6.42852e-05 1.88911C0.0119162 3.2429 0.00955451 5.07656 0.00744511 6.71431C0.00655694 7.40389 0.00571351 7.58281 0.00599466 8.15247C0.00599466 8.29053 0.0114506 8.42884 0.0475073 8.56332C0.158419 8.97707 0.402358 9.34232 0.741317 9.60218C1.08028 9.86203 1.49522 10.0019 1.92151 9.99998H12.0947C12.7383 9.99998 13.2559 9.72791 13.6501 9.2193C13.8504 8.96367 13.9717 8.6546 13.9991 8.33036V7.95003C13.9755 7.93677 13.97 7.91408 13.9645 7.89144C13.9618 7.8803 13.9591 7.86917 13.9542 7.85918C13.9089 7.76432 13.8338 7.68711 13.7404 7.63949C13.6471 7.59186 13.5407 7.57647 13.4378 7.59569C13.2328 7.63218 13.0564 7.82031 13.0604 8.03587C13.0706 8.54448 12.6657 9.0221 12.024 9.01947C10.007 9.01167 7.21729 9.0131 4.47868 9.01425H4.47671H4.47578H4.47483H4.47386H4.47287H4.47185C3.53209 9.01464 2.67354 9.01501 1.98105 9.01494C1.35338 9.01494 0.961022 8.61959 0.961022 7.98794V2.02121C0.960073 1.38097 1.35029 0.988244 1.98603 0.988244H8.81141L9.48801 0.987915C10.542 0.987305 11.7563 0.986234 12.1115 0.988244C12.5751 0.990867 12.9529 1.31158 13.0409 1.77155C13.0533 1.8455 13.0586 1.92048 13.0568 1.99545V6.1273C13.0568 6.40056 13.206 6.58846 13.4561 6.63329C13.6864 6.67454 13.8904 6.54292 13.9803 6.29541C13.9856 6.28546 13.9922 6.2763 14 6.26822V1.69739C13.9798 1.45513 13.9236 1.22312 13.7988 1.0128C13.4039 0.347054 12.8229 0.00392614 12.0484 0.00297235C11.4527 0.00209173 10.1057 0.002512 8.78493 0.00279186L7.7226 0.00297235C7.69663 0.00297235 7.67322 0.0032185 7.65215 0.00344007C7.59772 0.00401237 7.55888 0.00442069 7.53197 0H4.57562ZM5.6264 7.82131C5.47671 7.82346 5.36546 7.7772 5.2765 7.68682C4.64694 7.04301 3.58587 7.03204 2.93496 7.68682C2.73902 7.88354 2.4425 7.86685 2.26127 7.67037C2.08359 7.47818 2.09522 7.19467 2.2876 7.00033C3.27702 6.0029 4.9444 6.00337 5.9279 7.00033C6.0771 7.15174 6.11885 7.34775 6.04105 7.53279C6.00742 7.61626 5.95026 7.68804 5.87659 7.7393C5.80293 7.79056 5.71596 7.81906 5.6264 7.82131ZM7.65814 3.99279H8.55339C8.66132 3.99279 8.76925 3.99297 8.87722 3.99315H8.87786C9.07601 3.99348 9.27428 3.9938 9.47284 3.99303C9.76935 3.99089 9.97289 3.7944 9.97099 3.51399C9.96838 3.24406 9.76058 3.04591 9.47023 3.04591C8.86565 3.04432 8.26098 3.04432 7.65624 3.04591C7.36613 3.04663 7.15975 3.24406 7.15809 3.51589C7.1562 3.7956 7.35973 3.99279 7.65814 3.99279ZM4.10561 2.27021C3.78612 2.27064 3.47392 2.36626 3.20847 2.54499C2.94302 2.72371 2.73624 2.97753 2.61425 3.27436C2.49227 3.57119 2.46056 3.8977 2.52313 4.21264C2.5857 4.52758 2.73975 4.81681 2.9658 5.04377C3.19185 5.27072 3.47976 5.42523 3.79314 5.48776C4.10652 5.55029 4.43131 5.51803 4.72646 5.39506C5.0216 5.2721 5.27386 5.06394 5.45136 4.7969C5.62885 4.52986 5.72361 4.21592 5.72365 3.89477C5.72406 3.68115 5.68247 3.46956 5.60128 3.27215C5.52009 3.07474 5.40089 2.89541 5.25053 2.74445C5.10018 2.59348 4.92163 2.47388 4.72515 2.39249C4.52866 2.31111 4.31812 2.26955 4.10561 2.27021ZM4.10324 4.57029C3.97031 4.5694 3.84062 4.52892 3.73056 4.45397C3.6205 4.37902 3.53501 4.27296 3.48488 4.1492C3.43476 4.02543 3.42225 3.88951 3.44894 3.7586C3.47563 3.62769 3.54031 3.50767 3.63482 3.4137C3.72934 3.31972 3.84944 3.25602 3.97995 3.23062C4.11047 3.20523 4.24554 3.21928 4.36811 3.27102C4.49068 3.32275 4.59525 3.40984 4.6686 3.52128C4.74196 3.63273 4.78081 3.76352 4.78025 3.89715C4.77918 4.07651 4.70738 4.24811 4.58059 4.37431C4.4538 4.50051 4.28238 4.57099 4.10395 4.57029H4.10324ZM7.65814 5.8988H8.55339L9.06266 5.89899C9.8267 5.89934 11.1499 5.89994 11.3819 5.89904C11.6784 5.89689 11.882 5.70041 11.8801 5.41999C11.8775 5.15007 11.6697 4.95191 11.3793 4.95191C10.7747 4.95032 8.26098 4.95032 7.65624 4.95191C7.36613 4.95263 7.15975 5.15007 7.15809 5.4219C7.1562 5.7016 7.35973 5.8988 7.65814 5.8988Z" fill="#002C51"/>
</svg>
