<svg width="14" height="12" viewBox="0 0 14 12" fill="none" xmlns="http://www.w3.org/2000/svg">
<path d="M13.9741 1.78297C13.8369 0.884233 13.1348 0.198714 12.1857 0.038086C11.8245 -0.0233153 11.4586 0.00803304 11.0952 0.00777396C8.13951 0.00518319 5.18365 0.00475139 2.22762 0.00647857C1.13989 0.00673765 0.263234 0.678526 0.0442075 1.67857C-0.0227632 1.98479 0.00633065 2.29569 0.00605618 2.60451C0.00386042 4.41805 0.00386042 6.23228 0.00605618 8.04721C0.0085264 9.11979 0.903298 10.0364 2.03713 10.0779C3.34306 10.1255 4.65091 10.09 5.95793 10.0916C6.09622 10.0937 6.22997 10.0451 6.33094 9.95583C6.41227 9.88597 6.46934 9.79453 6.49466 9.69351C6.51998 9.59249 6.51238 9.48661 6.47284 9.38975C6.38858 9.18404 6.1948 9.06253 5.93653 9.06228C5.0531 9.06107 4.16949 9.06107 3.2857 9.06228C2.91242 9.06228 2.53831 9.07264 2.16586 9.05528C1.52552 9.02445 1.0979 8.59101 1.0979 7.9884C1.0979 6.0885 1.0979 4.18859 1.0979 2.28869C1.0979 2.25786 1.08143 2.22185 1.11546 2.19128C1.1473 2.2089 1.17859 2.22496 1.20878 2.2431C2.72678 3.13294 4.24341 4.0233 5.75867 4.91418C6.59031 5.40384 7.41729 5.40151 8.24811 4.91289C9.75989 4.02356 11.2726 3.13553 12.7862 2.24879C12.8219 2.22807 12.8537 2.19491 12.9053 2.19853V2.34465C12.9053 3.32034 12.9053 4.2962 12.9053 5.27223C12.9053 5.62328 13.2097 5.86344 13.5665 5.79634C13.7943 5.75334 13.9159 5.59996 13.998 5.40954V1.82339C13.9777 1.81665 13.9768 1.80007 13.9741 1.78297ZM11.3356 1.88375C10.1123 2.60192 8.88708 3.31697 7.66706 4.0398C7.21885 4.30561 6.78875 4.3082 6.3389 4.04161C4.78448 3.12154 3.22577 2.20613 1.66276 1.29539C1.55297 1.23192 1.57465 1.20601 1.66879 1.16041C1.83038 1.08011 2.01015 1.03789 2.19276 1.03735C5.39911 1.03735 8.60547 1.03735 11.8118 1.03735C12.0401 1.03689 12.2627 1.10434 12.448 1.2301L11.3356 1.88375Z" fill="#002C51"/>
<path d="M13.5864 9.42681C13.3363 9.31748 13.2073 9.11591 13.2087 8.84725C13.2098 8.59784 13.2098 8.34853 13.2087 8.09929C13.209 7.63684 13.0628 7.18486 12.7889 6.80141C12.515 6.41796 12.126 6.12056 11.6717 5.94739C11.5597 5.90361 11.3947 5.89998 11.3423 5.82381C11.2833 5.73858 11.3272 5.59064 11.3209 5.47173C11.3132 5.35098 11.2607 5.23664 11.1727 5.14869C11.0848 5.06074 10.9668 5.00478 10.8396 4.99058C10.7123 4.97638 10.5838 5.00485 10.4765 5.07102C10.3692 5.13718 10.29 5.23684 10.2527 5.35255C10.2137 5.47095 10.2277 5.59168 10.2315 5.71086C10.2343 5.80231 10.2068 5.83755 10.1083 5.8663C9.1707 6.14274 8.58443 6.73344 8.36349 7.63943C8.27264 8.0125 8.31381 8.39335 8.31765 8.7703C8.32122 9.11384 8.16944 9.34027 7.8387 9.47525C7.62873 9.56023 7.53322 9.72293 7.52388 9.9333C7.5212 10.0668 7.53857 10.2 7.57548 10.3289C7.76404 11.0515 8.33275 11.479 9.1191 11.4862C9.45139 11.4893 9.78387 11.4893 10.1165 11.4862C10.1915 11.4862 10.2216 11.4984 10.2384 11.5777C10.2933 11.838 10.5129 12.002 10.778 12C10.9049 12.0014 11.0281 11.9599 11.1253 11.883C11.2226 11.8061 11.2875 11.6989 11.3083 11.5808C11.3264 11.4932 11.3632 11.4847 11.4408 11.4854C11.7596 11.4885 12.0783 11.4885 12.3971 11.4854C13.1656 11.4792 13.7069 11.0898 13.9264 10.3947C13.9489 10.3235 13.9446 10.2429 14 10.1815V9.82112C13.9237 9.6307 13.7829 9.51308 13.5864 9.42681ZM12.7723 10.3126C12.6776 10.425 12.5511 10.4548 12.4092 10.4548C12.0721 10.4548 11.7352 10.4548 11.3983 10.4548H10.7558C10.214 10.4548 9.67216 10.4548 9.13036 10.4548C8.9676 10.4548 8.82432 10.4232 8.72743 10.2849C8.6923 10.2349 8.68379 10.2014 8.74308 10.1569C9.21544 9.80195 9.41416 9.33224 9.40757 8.76875C9.40428 8.46459 9.37408 8.1581 9.43145 7.85576C9.5492 7.23242 10.1827 6.76142 10.8312 6.80883C11.5432 6.86064 12.0938 7.39745 12.1125 8.05525C12.1226 8.40293 12.0886 8.75165 12.1336 9.0983C12.1885 9.52318 12.3993 9.86983 12.7514 10.1362C12.836 10.1999 12.8294 10.2437 12.7715 10.3126H12.7723Z" fill="#002C51"/>
</svg>
