<svg width="36" height="36" viewBox="0 0 36 36" fill="none" xmlns="http://www.w3.org/2000/svg">
<rect x="0.5" y="0.5" width="35" height="35" rx="11.5" stroke="#E0E0E0"/>
<path d="M16.2178 26.2022C16.2178 26.679 16.4056 27.1363 16.7398 27.4734C17.074 27.8106 17.5273 28 18 28C18.4727 28 18.926 27.8106 19.2602 27.4734C19.5944 27.1363 19.7822 26.679 19.7822 26.2022C19.7822 25.7255 19.5944 25.2682 19.2602 24.931C18.926 24.5939 18.4727 24.4045 18 24.4045C17.5273 24.4045 17.074 24.5939 16.7398 24.931C16.4056 25.2682 16.2178 25.7255 16.2178 26.2022ZM17.1089 21.4831H18.8911C19.0136 21.4831 19.1139 21.382 19.1139 21.2584L20.5 8.22472C20.5 8.10112 20.3998 8 20.2772 8H15.7228C15.6002 8 15.5 8.10112 15.5 8.22472L16.8861 21.2584C16.8861 21.382 16.9864 21.4831 17.1089 21.4831Z" fill="#E0E0E0"/>
</svg>
