<svg width="14" height="14" viewBox="0 0 14 14" fill="none" xmlns="http://www.w3.org/2000/svg">
<path fill-rule="evenodd" clip-rule="evenodd" d="M13.6439 9.81315C13.8338 9.74657 13.9327 9.60171 13.9997 9.43085V2.86798C13.9715 2.62716 13.9275 2.38972 13.8004 2.17542C13.3518 1.41836 12.6759 1.02019 11.7544 1.01369C11.5949 1.01248 11.4357 1.01248 11.2768 1.01369C11.1856 1.01447 11.1434 0.979104 11.1448 0.89016C11.145 0.8702 11.1453 0.85026 11.1456 0.830339C11.147 0.728529 11.1484 0.627205 11.1429 0.526064C11.1243 0.197336 10.9083 0.000204293 10.5647 0.000204293C10.2124 0.000204293 9.99179 0.194476 9.97427 0.527364C9.97055 0.594016 9.97122 0.660767 9.97188 0.727557C9.9723 0.768918 9.97271 0.810294 9.97208 0.85167C9.96989 1.00147 9.96031 1.01187 9.7988 1.01187H8.57022C8.47613 1.01187 8.38204 1.01205 8.28797 1.01222C8.09984 1.01257 7.91176 1.01291 7.72379 1.01187C7.58172 1.01109 7.56995 0.998609 7.56748 0.862073C7.56682 0.818533 7.56718 0.774951 7.56754 0.731343C7.56808 0.666855 7.56862 0.602311 7.56584 0.537767C7.55106 0.201758 7.3337 0.000204293 6.98549 0.000204293C6.6288 0.000204293 6.4098 0.199937 6.39557 0.540627C6.39146 0.648816 6.39092 0.757005 6.39557 0.864933C6.39995 0.968701 6.35916 1.01603 6.24556 1.01187C6.16983 1.0091 6.09398 1.01002 6.01809 1.01095C5.98013 1.01141 5.94216 1.01187 5.90419 1.01187C5.71313 1.01187 5.52203 1.01202 5.33093 1.01216C4.94868 1.01245 4.5664 1.01274 4.18424 1.01187C4.03149 1.01161 4.01972 0.999389 4.01725 0.858172C4.01667 0.815598 4.01683 0.772977 4.017 0.730349C4.01722 0.673503 4.01745 0.616645 4.01588 0.559872C4.00603 0.194216 3.78484 -0.0073377 3.40378 0.000204293C3.08788 0.00670601 2.87764 0.192915 2.84671 0.493035C2.84038 0.558053 2.84121 0.622781 2.84204 0.687327C2.84232 0.709272 2.8426 0.731196 2.8426 0.753104C2.8426 0.891196 2.84694 0.957019 2.8162 0.987741C2.78471 1.01922 2.71639 1.01385 2.56885 1.01161C2.18999 1.00563 1.81605 1.01863 1.45087 1.13775C0.756647 1.36479 -0.0030023 2.10208 8.92332e-06 3.04301C0.00728265 5.25995 0.0053277 7.93097 0.00357541 10.3251C0.00315143 10.9044 0.00273931 11.4675 0.00247265 12.004C0.00247265 12.4292 0.13086 12.8138 0.399954 13.155C0.778546 13.6304 1.26171 13.941 1.90091 14H12.061C12.438 13.9797 12.8001 13.8534 13.1013 13.6372C13.6042 13.2773 13.9302 12.8159 14 12.2097V11.8196C13.9981 11.8176 13.9959 11.8156 13.9937 11.8137C13.9892 11.8096 13.9846 11.8055 13.9828 11.8006C13.8774 11.5231 13.6551 11.3764 13.3887 11.4087C13.1103 11.4422 12.9288 11.6414 12.9075 11.9364C12.8626 12.5569 12.412 12.961 11.755 12.961H2.26445C2.15064 12.9634 2.03704 12.9507 1.92692 12.9233C1.41063 12.7839 1.10951 12.3923 1.10951 11.8604V5.85282C1.10951 5.65347 1.10931 5.39056 1.10909 5.10239C1.10859 4.43416 1.10798 3.63011 1.10951 3.16784C1.11115 2.65525 1.41391 2.2628 1.92035 2.13147C2.12193 2.07801 2.32839 2.08365 2.53483 2.08929C2.63368 2.09199 2.73253 2.09469 2.83083 2.0909C2.88886 2.08875 2.8858 2.122 2.88295 2.15298C2.88234 2.15955 2.88175 2.16603 2.88175 2.17204C2.88175 2.2193 2.88141 2.26672 2.88108 2.31423C2.88041 2.40947 2.87974 2.50502 2.88175 2.60011C2.88832 2.90413 3.12757 3.13169 3.43362 3.12831C3.7342 3.12493 3.96606 2.89997 3.9729 2.60141C3.97701 2.46202 3.97783 2.3234 3.9729 2.1853C3.97071 2.11769 3.98139 2.08804 4.06571 2.08804C4.82599 2.09098 5.5861 2.09098 6.34602 2.08804C6.42267 2.08752 6.43554 2.11326 6.43362 2.17672C6.43034 2.31612 6.43116 2.45447 6.43362 2.59283C6.4391 2.89919 6.67178 3.12727 6.97838 3.12805C7.28497 3.12883 7.52012 2.90075 7.52587 2.59517C7.52861 2.45647 7.52861 2.31776 7.52587 2.17906C7.52478 2.11977 7.52861 2.08778 7.61073 2.08778C8.38453 2.0902 9.15832 2.0902 9.93211 2.08778C10.0016 2.08752 10.0159 2.10962 10.0142 2.16918C10.011 2.30858 10.012 2.44693 10.0142 2.58529C10.0175 2.89971 10.2538 3.13039 10.565 3.12753C10.8708 3.12493 11.101 2.89659 11.1057 2.58867C11.1068 2.49401 11.1064 2.39878 11.106 2.30351C11.1058 2.25586 11.1057 2.2082 11.1057 2.1606C11.1057 2.15614 11.1055 2.15155 11.1053 2.14696C11.1039 2.11778 11.1026 2.08832 11.1544 2.09012C11.2534 2.0932 11.3529 2.09046 11.4523 2.08772C11.6631 2.08191 11.8738 2.0761 12.0797 2.12575C12.5981 2.24928 12.9077 2.65655 12.9077 3.19203V9.22331C12.9077 9.23351 12.9077 9.24372 12.9076 9.25393C12.9073 9.29137 12.907 9.32884 12.9105 9.36583C12.9172 9.44573 12.9432 9.52308 12.9866 9.59183C13.03 9.66059 13.0895 9.71889 13.1605 9.7622C13.2315 9.8055 13.312 9.83263 13.3959 9.84147C13.4797 9.85031 13.5646 9.84062 13.6439 9.81315ZM10.8794 5.84912C11.0615 5.63134 11.0343 5.30569 10.8188 5.12176C10.6032 4.93783 10.2808 4.96547 10.0987 5.18325L9.93497 5.37882C9.83045 5.50354 9.68096 5.68175 9.50112 5.89561C9.14139 6.3234 8.66053 6.89355 8.17558 7.46349C7.6902 8.03393 7.20239 8.60218 6.82817 9.02699C6.70797 9.16344 6.6008 9.2836 6.50995 9.38353C6.32132 9.1961 6.08084 8.94528 5.84088 8.69059C5.59841 8.43323 5.35982 8.17548 5.18163 7.98181C5.0926 7.88505 5.01878 7.80444 4.96727 7.74807L4.90765 7.68274L4.88686 7.65991C4.696 7.44998 4.37284 7.43611 4.16506 7.62894C3.95728 7.82178 3.94396 8.14872 4.13481 8.35866L4.15605 8.38198L4.21663 8.44836C4.26881 8.50545 4.34342 8.58694 4.43336 8.68469C4.61312 8.88005 4.85466 9.141 5.10088 9.40234C5.34627 9.66279 5.59967 9.92723 5.8021 10.128C5.9024 10.2275 5.99615 10.3173 6.07279 10.3845C6.11 10.4171 6.15229 10.4525 6.19437 10.4825C6.21476 10.497 6.24578 10.518 6.28325 10.5373L6.2848 10.5381C6.3071 10.5497 6.40386 10.6 6.53393 10.6C6.67139 10.6 6.7713 10.543 6.78947 10.5327L6.79115 10.5317C6.82515 10.5126 6.85169 10.493 6.86662 10.4816C6.89802 10.4574 6.92712 10.431 6.9494 10.41C6.99624 10.3658 7.05264 10.3079 7.11346 10.2432C7.2369 10.112 7.40177 9.92851 7.59134 9.71331C7.97158 9.28167 8.46401 8.70797 8.9503 8.13646C9.43702 7.56446 9.91927 6.99266 10.2797 6.564C10.46 6.34963 10.6099 6.17098 10.7147 6.04589L10.8794 5.84912Z" fill="#002C51"/>
</svg>
