<svg width="14" height="14" viewBox="0 0 14 14" fill="none" xmlns="http://www.w3.org/2000/svg">
<path d="M6.31409 13.4995C6.29022 13.4553 6.24172 13.4629 6.20439 13.4525C5.94152 13.3804 5.70899 13.2252 5.54146 13.0101C5.37392 12.7951 5.28035 12.5316 5.27469 12.2591C5.26834 11.8319 5.26733 11.4042 5.27469 10.977C5.28663 10.307 5.83718 9.74725 6.50811 9.74471C8.42472 9.7376 10.3412 9.7376 12.2574 9.74471C12.8443 9.74624 13.3316 10.1602 13.4708 10.7461C13.4759 10.7682 13.4629 10.7992 13.498 10.8086V11.1134C13.4424 11.3976 13.258 11.5573 12.9873 11.5556C12.7166 11.5538 12.5091 11.374 12.454 11.1015C12.4466 11.0641 12.4436 11.0253 12.4347 10.9889C12.406 10.8719 12.3453 10.8178 12.2242 10.8018C12.1779 10.7972 12.1313 10.7957 12.0848 10.7972H6.64117C6.40221 10.8005 6.33034 10.8703 6.32857 11.1088C6.32654 11.4344 6.32857 11.7603 6.32857 12.0861C6.32857 12.3825 6.39028 12.4447 6.68409 12.445H12.0784C12.1633 12.4411 12.2484 12.4457 12.3324 12.4587C12.4234 12.476 12.5085 12.5162 12.5796 12.5755C12.6508 12.6349 12.7056 12.7114 12.739 12.7978C12.7724 12.8842 12.7831 12.9777 12.7703 13.0695C12.7575 13.1613 12.7215 13.2482 12.6658 13.3222C12.5812 13.4375 12.4659 13.4837 12.3319 13.5L6.31409 13.4995Z" fill="#002C51"/>
<path d="M13.4987 1.87147C13.4391 2.03503 13.3507 2.17319 13.1795 2.241C13.1056 2.27065 13.0257 2.28248 12.9463 2.27554C12.867 2.2686 12.7903 2.24309 12.7226 2.20106C12.655 2.15903 12.5981 2.10166 12.5567 2.0336C12.5153 1.96553 12.4904 1.88868 12.4842 1.80924C12.4642 1.58778 12.3852 1.5159 12.1597 1.5159H6.614C6.3725 1.5159 6.28895 1.60098 6.2887 1.84607V2.89931C6.2887 3.16141 6.36818 3.24218 6.62695 3.24218C8.47974 3.24218 10.3325 3.24218 12.1853 3.24218C12.4555 3.24218 12.6465 3.375 12.7148 3.60815C12.7364 3.68136 12.7411 3.75848 12.7286 3.83377C12.7162 3.90906 12.6869 3.98056 12.643 4.04294C12.599 4.10531 12.5415 4.15694 12.4748 4.19398C12.4081 4.23101 12.3339 4.25249 12.2577 4.25681C12.2196 4.25909 12.1815 4.25681 12.1434 4.25681C10.3033 4.25681 8.46324 4.25681 6.62314 4.25681C5.81052 4.25681 5.27317 3.71863 5.27291 2.90769C5.27291 2.54383 5.27291 2.1798 5.27291 1.81559C5.27469 1.15856 5.65993 0.674989 6.30241 0.525398C6.31917 0.521588 6.33517 0.520572 6.33949 0.5H12.407C12.9225 0.552573 13.2471 0.849471 13.4467 1.30917C13.4827 1.39222 13.4678 1.48339 13.4987 1.56644V1.87147Z" fill="#002C51"/>
<path d="M13.4987 6.49205C13.4388 6.65561 13.3507 6.79352 13.1795 6.86158C13.1056 6.89123 13.0257 6.90306 12.9463 6.89612C12.867 6.88918 12.7903 6.86367 12.7226 6.82164C12.655 6.77961 12.5981 6.72224 12.5567 6.65418C12.5153 6.58611 12.4904 6.50926 12.4842 6.42982C12.4642 6.20836 12.3849 6.13623 12.1594 6.13623H6.61273C6.37631 6.13623 6.28895 6.22182 6.28895 6.45497C6.28895 6.81883 6.28895 7.18286 6.28895 7.54706C6.28895 7.77412 6.37732 7.86301 6.60308 7.86301H12.1879C12.4573 7.86301 12.6475 7.99685 12.7153 8.23153C12.7362 8.30376 12.7407 8.37974 12.7286 8.45395C12.7165 8.52816 12.6879 8.59873 12.6451 8.66053C12.6023 8.72234 12.5462 8.77382 12.481 8.81124C12.4158 8.84867 12.3431 8.87109 12.2681 8.87688C12.23 8.87993 12.1919 8.8784 12.1538 8.8784H6.6206C5.8161 8.8784 5.27469 8.33896 5.27469 7.53767C5.27469 7.1694 5.27469 6.80122 5.27469 6.43313C5.27647 5.6712 5.82525 5.12134 6.58556 5.12109C8.44292 5.12007 10.3003 5.12007 12.1576 5.12109C12.8471 5.12109 13.3141 5.49062 13.4769 6.16239C13.4792 6.17204 13.4921 6.1789 13.5 6.18779L13.4987 6.49205Z" fill="#002C51"/>
<path d="M4.25611 10.9877C4.25093 10.6588 4.11782 10.3449 3.88503 10.1125C3.65224 9.88019 3.33809 9.74771 3.00924 9.74319C2.586 9.73693 2.16343 9.73693 1.74154 9.74319C1.21156 9.75132 0.748105 10.0957 0.570343 10.5981C0.544948 10.6679 0.548758 10.7469 0.500508 10.8084V12.4592C0.533775 12.5321 0.520824 12.6146 0.552567 12.6908C0.740233 13.1353 1.05767 13.4185 1.54143 13.4997H3.16669C3.17958 13.4907 3.19369 13.4835 3.20859 13.4784C3.82745 13.3575 4.25154 12.8564 4.25738 12.2306C4.26094 11.8161 4.26297 11.4019 4.25611 10.9877ZM3.24312 12.2014C3.24109 12.3843 3.14307 12.4828 2.95972 12.4836C2.57034 12.4851 2.18155 12.4851 1.79335 12.4836C1.6199 12.4836 1.51883 12.3807 1.51782 12.2068C1.51612 11.8173 1.51612 11.4285 1.51782 11.0402C1.51782 10.8576 1.61762 10.7591 1.80096 10.7583C2.19035 10.7568 2.57914 10.7568 2.96734 10.7583C3.14053 10.7583 3.24109 10.8612 3.24312 11.0352C3.24541 11.2338 3.24312 11.4324 3.24312 11.631C3.24312 11.821 3.24312 12.0112 3.24312 12.2014Z" fill="#002C51"/>
<path d="M4.25535 1.74448C4.24646 1.32593 4.06286 0.991951 3.72841 0.739245C3.5603 0.612003 3.36299 0.557399 3.16694 0.5H1.56708C1.04395 0.533271 0.533775 1.04351 0.500508 1.5667V3.21754C0.542663 3.23202 0.532505 3.27418 0.540885 3.30288C0.711537 3.89362 1.18616 4.25554 1.80274 4.25732C2.20449 4.25859 2.60597 4.2624 3.00746 4.25732C3.33654 4.25306 3.651 4.12071 3.88408 3.88835C4.11717 3.656 4.25054 3.34193 4.25586 3.01284C4.26297 2.58997 4.26424 2.16684 4.25535 1.74448ZM3.24312 2.95239C3.2416 3.14287 3.14408 3.24116 2.95413 3.24167C2.56966 3.24302 2.1851 3.24302 1.80046 3.24167C1.61609 3.24091 1.51629 3.14135 1.51629 2.95899C1.51477 2.56956 1.51477 2.18073 1.51629 1.79248C1.51629 1.61902 1.61787 1.51717 1.79233 1.51616C2.18544 1.51446 2.57846 1.51446 2.9714 1.51616C3.13799 1.51616 3.23881 1.61775 3.24135 1.78562C3.24414 1.98423 3.24135 2.18284 3.24135 2.38145C3.24312 2.57193 3.24312 2.76216 3.24312 2.95239Z" fill="#002C51"/>
<path d="M4.25561 6.35973C4.24894 6.03268 4.11569 5.72097 3.88389 5.49019C3.6521 5.25941 3.33983 5.12755 3.01279 5.12236C2.58955 5.11575 2.16631 5.11575 1.74307 5.12236C1.48356 5.12745 1.23187 5.21213 1.02204 5.36493C0.812213 5.51773 0.654363 5.73129 0.569835 5.97673C0.544441 6.04657 0.548504 6.12556 0.5 6.18702V7.83787C0.543679 7.85691 0.534791 7.90263 0.543933 7.93539C0.702903 8.49769 1.18362 8.87256 1.76592 8.87815C2.18468 8.88196 2.60394 8.88501 3.02244 8.87663C3.34725 8.86893 3.6566 8.73633 3.88617 8.50641C4.11574 8.27648 4.24787 7.9669 4.2551 7.64205C4.26339 7.2152 4.26356 6.78776 4.25561 6.35973ZM3.2416 7.58338C3.2416 7.7637 3.14002 7.86275 2.9554 7.86275C2.57093 7.86428 2.18637 7.86428 1.80173 7.86275C1.61787 7.86199 1.51629 7.7637 1.51629 7.58262C1.5146 7.19319 1.5146 6.80435 1.51629 6.41611C1.51629 6.23629 1.61787 6.13826 1.80249 6.13674C1.99676 6.13521 2.19128 6.13674 2.38656 6.13674C2.57677 6.13674 2.76748 6.13674 2.95718 6.13674C3.14053 6.13826 3.2416 6.23604 3.24262 6.41611C3.24397 6.80554 3.24363 7.19463 3.2416 7.58338Z" fill="#002C51"/>
</svg>
