<svg width="16" height="16" viewBox="0 0 16 16" fill="none" xmlns="http://www.w3.org/2000/svg">
<path d="M9.00826 0.5C9.07648 0.555796 9.16323 0.53524 9.24027 0.552859C10.3047 0.793663 11.0622 1.70402 11.0883 2.79057C11.098 3.19553 11.0945 3.60108 11.0898 4.00633C11.086 4.34287 10.8325 4.59689 10.5097 4.59983C10.1809 4.60276 9.92157 4.34581 9.91892 4.00193C9.91451 3.63602 9.91892 3.26953 9.91745 2.90334C9.91481 2.17358 9.41316 1.67171 8.68246 1.66995C6.76137 1.66878 4.84027 1.66878 2.91918 1.66995C2.17612 1.6726 1.67625 2.17388 1.67448 2.91244C1.67448 6.30601 1.67448 9.69957 1.67448 13.0931C1.67448 13.8235 2.17759 14.3265 2.90741 14.328C4.834 14.3296 6.76039 14.3296 8.68658 14.328C9.41552 14.328 9.91539 13.8223 9.91745 13.0908C9.91745 12.7384 9.91745 12.3878 9.91745 12.0362C9.91745 11.6654 10.1603 11.4019 10.4994 11.3993C10.8437 11.3967 11.0945 11.6636 11.0889 12.0418C11.0822 12.5293 11.1224 13.0183 11.0613 13.5046C10.9372 14.4907 10.0783 15.3455 9.09118 15.4721C8.96049 15.4899 8.82877 15.4992 8.69687 15.5C6.76068 15.5 4.82449 15.5 2.8883 15.5C1.8415 15.5 0.967893 14.8833 0.6268 13.9095C0.540921 13.6597 0.49807 13.3972 0.500067 13.1331C0.500067 9.71014 0.500753 6.28721 0.502125 2.86428C0.502125 1.71048 1.27693 0.779273 2.4096 0.539938C2.44812 0.531716 2.50104 0.553447 2.52486 0.5H9.00826Z" fill="white"/>
<path d="M13.8912 7.44366C13.5592 7.11505 13.2566 6.81698 12.9564 6.51656C12.79 6.35006 12.7379 6.14684 12.805 5.92424C12.8703 5.70664 13.0261 5.57185 13.249 5.5231C13.3399 5.50116 13.435 5.50315 13.5249 5.52888C13.6149 5.55462 13.6966 5.60322 13.7621 5.66993C14.2326 6.13333 14.703 6.59438 15.1573 7.07247C15.3838 7.31092 15.4825 7.60928 15.4981 7.94934C15.5208 8.44681 15.3367 8.83444 14.9865 9.17098C14.5781 9.56361 14.1843 9.9718 13.7809 10.3694C13.601 10.5456 13.3831 10.5985 13.1472 10.5033C12.9194 10.4114 12.7944 10.2332 12.78 9.98531C12.7697 9.79824 12.8473 9.64613 12.979 9.51545C13.2731 9.22501 13.5671 8.93223 13.8891 8.61302H13.7027C11.4395 8.61302 9.17616 8.61302 6.9126 8.61302C6.64473 8.61302 6.4339 8.52492 6.31187 8.27766C6.13133 7.9144 6.37715 7.48477 6.78499 7.44366C6.8437 7.43943 6.90258 7.43815 6.96142 7.43984H13.8912V7.44366Z" fill="white"/>
</svg>
