<svg width="36" height="36" viewBox="0 0 36 36" fill="none" xmlns="http://www.w3.org/2000/svg">
<rect x="0.5" y="0.5" width="35" height="35" rx="11.5" stroke="#95B0CD"/>
<path opacity="0.4" d="M10 16.1054V24.0333C10.1062 24.6718 10.5458 25.0427 11.0707 25.3266C11.8044 25.7232 12.6013 25.9127 13.4294 25.97C13.5596 25.9792 13.6899 25.9844 13.8182 25.984C13.9188 25.9932 14.0217 25.9642 14.1207 26H15.1511C15.4536 25.9596 15.7604 25.971 16.0629 25.9173C16.7793 25.7903 17.4772 25.6129 18.1044 25.2264C18.4606 25.0066 18.7618 24.7324 18.9289 24.3374C18.9712 24.2368 19.0386 24.23 19.1298 24.2472C19.9229 24.3962 20.7305 24.4537 21.5367 24.4185C22.5478 24.3755 23.5495 24.2557 24.4961 23.865C24.952 23.6761 25.3786 23.4436 25.701 23.0545C25.8959 22.8274 26.0021 22.5375 26 22.2382C26 18.8677 26 15.4972 26 12.1264C26 11.7067 25.8082 11.3896 25.505 11.1278C25.0374 10.7237 24.4763 10.5017 23.8924 10.3359C23.2414 10.15 22.5781 10.0321 21.8965 10.0152C21.2521 9.99957 20.6069 9.98264 19.9651 10.0386C19.0419 10.1213 18.1457 10.3252 17.3179 10.7612C17.0274 10.9142 16.7611 11.1044 16.5562 11.371C16.3641 11.6139 16.2601 11.9148 16.2612 12.2245C16.2612 12.8323 16.2612 13.4408 16.2612 14.0501C16.2612 14.2598 16.2586 14.2608 16.0492 14.2263C15.465 14.124 14.8719 14.0803 14.279 14.0961C13.3092 14.1319 12.3479 14.2331 11.4433 14.6245C11.0792 14.7821 10.7347 14.9687 10.4504 15.2578C10.2136 15.4994 10.0345 15.7628 10 16.1054ZM17.6638 14.7453C17.5791 14.7072 17.5524 14.6649 17.5527 14.5741C17.5566 13.8352 17.5582 13.0964 17.5527 12.358C17.5498 12.3043 17.5598 12.2507 17.5819 12.2017C17.604 12.1527 17.6376 12.1097 17.6797 12.0763C17.9484 11.8422 18.2659 11.7035 18.6036 11.6107C20.2377 11.161 21.8786 11.1574 23.5208 11.5618C23.9051 11.6563 24.2747 11.7963 24.5857 12.0545C24.7635 12.2023 24.7632 12.2332 24.5792 12.3749C24.2604 12.6204 23.8875 12.7529 23.5062 12.8539C22.2404 13.1905 20.959 13.2179 19.6691 13.0307C19.3138 12.9792 18.9963 13.197 18.9351 13.5448C18.9221 13.6259 18.9253 13.7088 18.9444 13.7888C18.9635 13.8687 18.9981 13.944 19.0464 14.0106C19.0946 14.0771 19.1555 14.1335 19.2255 14.1765C19.2955 14.2194 19.3733 14.2482 19.4545 14.2611C20.7834 14.469 22.139 14.433 23.455 14.155C23.8956 14.0609 24.3247 13.9199 24.7352 13.7343C24.7352 13.9583 24.7088 14.169 24.7407 14.3709C24.8029 14.7636 24.6 14.9677 24.2796 15.1097C24.1943 15.1478 24.1112 15.1911 24.0239 15.2233C23.4944 15.4187 22.9425 15.5141 22.3837 15.5746C21.8763 15.6243 21.3665 15.6461 20.8567 15.6398C20.6935 15.6403 20.537 15.7053 20.4215 15.8206C20.306 15.936 20.2407 16.0923 20.2399 16.2555C20.2364 16.5876 20.4959 16.8742 20.8261 16.8836C21.8382 16.9087 22.8409 16.8299 23.8266 16.584C24.1351 16.5017 24.4381 16.4 24.7339 16.2796C24.7339 16.489 24.7072 16.6853 24.7394 16.8715C24.8097 17.2821 24.5912 17.4863 24.2574 17.6273C24.2288 17.6393 24.2004 17.6524 24.1718 17.6647C23.5947 17.9177 22.9829 18.0271 22.3628 18.102C21.8662 18.1616 21.3673 18.1671 20.8675 18.1671C20.5024 18.1671 20.2442 18.4328 20.2412 18.7858C20.2389 18.8668 20.2528 18.9474 20.2821 19.0229C20.3113 19.0984 20.3554 19.1673 20.4118 19.2256C20.4681 19.2838 20.5355 19.3302 20.61 19.3619C20.6845 19.3937 20.7646 19.4103 20.8456 19.4106C21.6987 19.438 22.5521 19.3679 23.3893 19.2016C23.8511 19.1104 24.3018 18.9701 24.7339 18.7832C24.7339 19.0268 24.7127 19.257 24.7394 19.4813C24.77 19.7395 24.6564 19.8935 24.4518 20.0111C24.3802 20.0524 24.3099 20.097 24.2356 20.1335C23.8448 20.3256 23.428 20.4265 23.003 20.504C22.3265 20.6222 21.6401 20.6754 20.9534 20.6629C20.6229 20.6587 20.3855 20.8192 20.3021 21.0921C20.1719 21.5206 20.4568 21.9042 20.915 21.9094C22.2176 21.9247 23.4977 21.8 24.7329 21.2855C24.7329 21.5558 24.7277 21.8107 24.7352 22.0653C24.7382 22.1117 24.7298 22.1581 24.7108 22.2005C24.6918 22.2429 24.6627 22.28 24.6261 22.3086C24.4421 22.4655 24.2301 22.573 24.0073 22.6628C23.2909 22.9533 22.537 23.0604 21.7718 23.107C20.9054 23.1643 20.0352 23.1086 19.1832 22.9412C19.0416 22.9129 18.9878 22.865 18.9878 22.7052C18.995 20.6034 18.9904 18.5019 18.9943 16.4001C18.9943 15.98 18.8452 15.6323 18.5554 15.337C18.2984 15.0771 17.9927 14.8922 17.6638 14.7453ZM11.2375 16.6667C11.2342 16.291 11.3778 16.0852 11.6855 15.9403C11.7419 15.9139 11.7959 15.883 11.8523 15.8569C12.4117 15.5981 13.0073 15.491 13.615 15.4363C14.5802 15.349 15.5363 15.3949 16.4778 15.6401C16.8806 15.7449 17.2717 15.8866 17.6003 16.1559C17.7738 16.2985 17.7728 16.361 17.6003 16.5049C17.3397 16.7201 17.0333 16.8507 16.7145 16.9464C15.5747 17.288 14.4151 17.3388 13.2418 17.1796C12.8927 17.132 12.5811 17.3486 12.5221 17.6908C12.4632 18.033 12.6869 18.3622 13.0285 18.411C14.3089 18.5927 15.5786 18.5413 16.8334 18.2127C17.1447 18.1286 17.4484 18.018 17.7409 17.8822C17.7409 18.1841 17.7308 18.4654 17.7448 18.7454C17.7527 18.902 17.6895 19.0007 17.5742 19.0863C17.3244 19.2716 17.0421 19.3905 16.7467 19.4728C15.5874 19.7962 14.4096 19.8284 13.2226 19.676C12.8712 19.6311 12.5518 19.8619 12.501 20.2087C12.4783 20.3705 12.5203 20.5347 12.6178 20.6657C12.7153 20.7968 12.8605 20.8842 13.022 20.9091C14.1571 21.0682 15.3105 21.0424 16.4374 20.8326C16.8858 20.7511 17.3231 20.6167 17.74 20.4324C17.74 20.715 17.7295 20.9791 17.7439 21.2419C17.7523 21.3982 17.6895 21.4975 17.5736 21.5831C17.3241 21.7684 17.0414 21.8876 16.7464 21.9699C15.5871 22.2936 14.4092 22.3255 13.2223 22.1734C12.8706 22.1282 12.5511 22.3584 12.5 22.7052C12.4774 22.8671 12.5193 23.0314 12.6168 23.1626C12.7143 23.2938 12.8595 23.3814 13.021 23.4065C14.1561 23.5655 15.3095 23.5396 16.4364 23.33C16.8856 23.2486 17.3235 23.1142 17.7409 22.9295C17.7409 23.1809 17.7308 23.4137 17.7445 23.6458C17.7533 23.7927 17.696 23.8946 17.5976 23.9871C17.3528 24.2176 17.0509 24.3453 16.7363 24.4371C15.3113 24.8568 13.8778 24.862 12.4423 24.4954C12.0841 24.4042 11.7376 24.2775 11.4462 24.0372C11.3124 23.9272 11.242 23.8015 11.2427 23.6117C11.2515 21.2959 11.2586 18.9812 11.2375 16.6667Z" fill="#95B0CD"/>
</svg>
